<?xml version="1.0" encoding="iso-8859-1"?>
<!-- Generator: Adobe Illustrator 19.0.0, SVG Export Plug-In . SVG Version: 6.00 Build 0)  -->
<svg version="1.1" id="Capa_1" xmlns="http://www.w3.org/2000/svg" xmlns:xlink="http://www.w3.org/1999/xlink" x="0px" y="0px"
	 viewBox="0 0 512 512" style="enable-background:new 0 0 512 512;" xml:space="preserve">
<g>
	<path style="fill:#FFAC2B;" d="M114.411,358.16c-5.837-9.377-18.171-12.245-27.549-6.408c-9.377,5.838-12.246,18.174-6.407,27.552
		c11.297,18.146,25.036,34.672,40.836,49.118c8.152,7.454,20.804,6.886,28.256-1.267c7.453-8.154,6.886-20.805-1.267-28.259
		C135.174,386.914,123.779,373.208,114.411,358.16z"/>
	<path style="fill:#FFAC2B;" d="M278.65,22.5c-99.399,0-185.556,62.442-218.862,152.338c-3.504,9.457-6.372,19.072-8.608,28.818
		H20.001c-8.088,0-15.38,4.872-18.477,12.345c-3.096,7.472-1.387,16.075,4.33,21.796l45.707,45.739
		c7.826,7.833,20.601,7.698,28.293,0l45.707-45.739c5.717-5.721,7.426-14.324,4.33-21.796c-3.097-7.473-10.388-12.345-18.477-12.345
		H92.389c22.436-80.494,96.817-141.152,186.261-141.152C385.264,62.504,472,149.306,472,256s-86.736,193.496-193.35,193.496
		c-31.639,0-63.017-7.809-90.739-22.583c-9.747-5.195-21.861-1.503-27.056,8.246s-1.503,21.863,8.245,27.058
		c33.492,17.848,71.373,27.283,109.55,27.283c62.332,0,120.933-24.289,165.008-68.395C487.729,377.004,512,318.368,512,256
		C512,127.002,407.698,22.5,278.65,22.5z"/>
</g>
<path style="fill:#FF981E;" d="M278.65,22.5c-0.802,0-1.6,0.015-2.4,0.024V62.53c0.8-0.01,1.598-0.025,2.4-0.025
	C385.264,62.504,472,149.306,472,256s-86.736,193.496-193.35,193.496c-0.8,0-1.6-0.027-2.4-0.037v40.004
	c0.8,0.008,1.599,0.037,2.4,0.037c62.332,0,120.933-24.289,165.008-68.395C487.728,377.004,512,318.368,512,256
	C512,127.002,407.698,22.5,278.65,22.5z"/>
<g>
</g>
<g>
</g>
<g>
</g>
<g>
</g>
<g>
</g>
<g>
</g>
<g>
</g>
<g>
</g>
<g>
</g>
<g>
</g>
<g>
</g>
<g>
</g>
<g>
</g>
<g>
</g>
<g>
</g>
</svg>
